<svg width="626" height="340" viewBox="0 0 626 340" fill="none" xmlns="http://www.w3.org/2000/svg">
<path d="M514.933 241.972C514.933 241.972 463.96 266.405 444.161 292.523C433.208 306.846 425.205 320.748 425.205 328.752C425.205 332.543 427.311 335.071 432.366 335.071C447.11 335.071 471.964 306.425 485.866 286.205C495.555 272.724 505.665 260.087 514.933 241.972ZM584.019 141.713C584.019 141.713 584.019 141.291 584.019 140.449C584.019 137.921 583.177 133.709 576.015 128.654C574.752 127.811 573.488 127.39 571.382 127.39C562.535 127.39 546.527 137.921 526.307 163.197C514.09 177.941 506.086 199.004 506.086 210.378C506.086 215.012 507.35 217.961 510.72 217.961C518.724 217.961 537.681 206.165 554.11 184.26C566.326 168.252 582.334 145.083 584.019 141.713ZM623.618 172.886C611.401 186.366 584.862 219.224 545.685 229.335C545.685 229.335 515.775 275.252 493.87 298C476.177 316.114 447.11 339.704 431.945 339.704C423.941 339.704 420.149 335.913 420.149 329.594C420.149 321.169 427.311 307.689 439.106 291.681C463.118 260.086 518.724 233.968 520.409 233.968L544 200.268C544 201.11 523.779 222.594 508.193 222.594C494.291 222.594 489.236 215.012 489.236 205.323C489.236 191.842 498.082 174.15 506.508 164.039C521.673 145.083 546.106 121.492 567.59 121.492C568.433 121.492 569.696 121.492 570.539 121.492C579.807 122.335 587.811 136.236 587.811 136.236L597.078 125.284H616.456C549.897 222.594 578.122 181.732 549.897 222.594C549.897 221.752 581.492 215.854 620.669 167.831C621.511 166.988 622.354 166.567 623.196 166.567C624.46 166.567 625.724 167.409 625.724 169.094C625.724 169.937 624.881 171.201 623.618 172.886Z" fill="#ADBED7"/>
<path d="M476.773 175.835C480.564 167.831 485.619 154.772 485.619 144.24C485.619 135.394 482.249 128.232 472.139 127.811H472.56H472.139C457.816 127.811 442.651 147.189 432.54 163.197C424.958 174.992 415.269 194.37 415.269 206.587C415.269 213.748 418.639 218.382 426.643 218.382C446.863 218.382 468.347 192.685 476.773 175.835ZM506.261 172.465C501.206 177.941 492.359 179.205 486.462 179.205C482.67 179.205 479.721 178.784 479.721 178.784C473.824 190.579 452.34 222.173 423.273 222.173C408.95 222.173 402.631 209.114 402.631 193.949C402.631 182.996 406.001 171.201 411.477 163.197C423.273 145.925 439.281 123.599 472.56 123.599C485.619 123.599 489.41 132.866 489.41 143.819C489.41 156.036 484.355 169.937 481.828 174.15C481.828 174.15 483.513 174.571 486.04 174.571C490.674 174.571 498.257 173.728 503.312 169.095C504.154 168.252 504.997 167.831 505.839 167.831C507.103 167.831 507.946 168.673 507.946 169.516C507.946 170.358 507.525 171.201 506.261 172.465Z" fill="#ADBED7"/>
<path d="M457.829 5.22466C440.979 5.22466 417.809 39.3467 405.172 57.0396C395.483 70.9411 364.31 110.118 364.31 110.539C381.16 98.7442 419.494 70.5199 440.557 51.5632C452.353 41.0317 465.833 20.8113 465.833 11.1223C465.833 6.48845 462.042 5.22466 457.829 5.22466ZM469.624 9.85853C469.624 20.39 461.199 39.7679 443.928 54.512C424.55 71.3624 379.475 105.906 360.518 118.122L324.29 171.201C324.29 171.201 308.703 194.791 308.703 208.693C308.703 214.591 311.652 218.803 319.235 218.803C341.14 218.803 361.361 188.051 371.471 171.201C372.735 169.095 369.786 124.02 385.794 124.02C392.534 124.02 395.061 129.075 395.061 134.973C395.061 145.504 387.058 161.091 379.475 172.886C379.475 173.307 384.109 174.15 389.585 174.15C395.904 174.15 403.065 173.307 407.278 169.516C408.12 168.673 409.384 168.252 410.227 168.252C411.069 168.252 411.912 168.673 411.912 169.516C411.912 170.358 411.069 172.043 409.384 173.728C405.172 177.941 398.01 179.205 391.27 179.205C384.109 179.205 377.79 177.941 376.105 177.941C375.684 177.941 375.684 177.941 375.684 177.941C366.416 190.157 344.932 224.701 315.022 224.701C303.227 224.701 296.487 215.433 296.487 201.531C296.487 187.209 303.648 167.831 319.656 149.295C319.656 149.295 332.715 133.709 333.136 133.709C325.975 137.5 302.806 156.035 286.798 172.465C286.377 172.886 285.534 173.307 284.691 173.307C283.428 173.307 282.164 172.465 282.164 171.201C282.164 170.358 282.585 169.516 283.849 168.252C301.542 150.98 323.447 132.866 339.034 124.862C339.034 124.862 384.53 69.2561 395.061 55.3545C403.908 43.5593 435.081 0.59082 458.25 0.59082C464.99 0.59082 469.624 2.69711 469.624 9.85853Z" fill="#ADBED7"/>
<path d="M243.245 141.713C243.245 141.291 243.245 141.291 243.245 140.87C243.245 137.5 241.56 130.339 236.083 127.811C234.398 126.968 232.713 126.968 230.607 126.968C218.812 126.968 199.012 138.764 179.213 163.197C167.418 177.52 157.308 196.897 157.308 207.85C157.308 213.748 159.835 217.539 166.575 217.539C178.371 217.539 198.17 201.531 215.863 182.575C227.658 169.937 241.56 148.031 243.245 141.713ZM286.634 172.886C279.894 179.626 245.772 223.858 220.497 223.858C212.493 223.858 206.174 217.118 206.174 207.429C206.174 203.638 207.016 199.425 209.965 194.791C209.965 194.791 185.532 222.594 165.312 222.594C153.095 222.594 146.776 211.22 146.776 196.897C146.776 184.681 150.989 169.937 160.256 157.72C181.319 129.075 210.808 122.756 225.552 122.756C226.815 122.756 228.079 122.756 229.343 122.756C244.087 124.02 246.615 136.236 246.615 136.236L255.04 124.862H273.996L225.552 194.791C223.024 198.161 218.39 204.48 218.39 209.535C218.39 212.484 220.497 215.012 226.815 215.012C233.134 215.012 240.296 209.535 245.351 205.744C260.095 193.949 280.129 172.055 284.763 167C286.448 164.894 295.5 157.5 293.5 160C294.764 160 290.162 166.988 290.162 168.252C290.162 169.094 288.319 170.779 286.634 172.886Z" fill="#ADBED7"/>
<path d="M186.278 58.1835C169.02 100.984 128.98 104.436 128.98 104.436C137.609 106.507 156.248 114.791 156.248 136.536C156.248 145.511 152.797 156.901 144.513 171.053C121.386 210.057 86.1794 225.244 40.2721 225.244C11.6233 225.244 0.232727 209.367 0.232727 190.383C0.232727 163.114 23.7041 129.978 51.6627 129.978C53.3885 129.978 55.4595 129.978 57.5305 130.323C71.3372 132.74 77.205 140.333 77.205 149.308C77.205 162.424 64.4338 177.611 44.7593 182.444C44.069 182.444 43.7238 182.099 43.7238 181.753C43.7238 181.408 44.069 181.063 45.1045 180.373C59.6015 172.434 71.3372 157.246 71.3372 146.201C71.3372 139.643 66.85 134.12 56.1498 133.085C55.1143 133.085 54.0788 133.085 53.0433 133.085C27.8461 133.085 4.02957 164.495 4.02957 189.692C4.02957 205.915 14.3846 219.722 40.9625 219.722C68.5758 219.722 100.676 213.854 126.219 173.815C137.954 155.521 141.751 142.404 141.751 132.74C141.751 110.649 120.351 107.542 120.351 107.542C115.519 109.613 110.686 110.304 107.235 110.304C102.747 110.304 99.6409 108.923 99.6409 106.162C99.6409 106.162 99.6409 105.817 99.6409 105.471C100.676 101.329 104.818 100.294 109.306 100.294C114.483 100.294 120.006 102.02 120.006 102.02C135.538 96.1519 153.487 103.746 172.126 62.6707C176.268 53.6963 177.994 45.7575 177.994 39.1993C177.994 19.8699 163.842 10.2052 149 10.2052C130.016 10.2052 123.112 12.9666 107.235 21.5957C87.9052 31.9508 80.3115 47.8285 80.3115 59.219C80.3115 67.8482 84.4536 73.716 91.0117 73.716C92.0472 73.716 93.4279 73.716 94.4634 73.3708C102.747 70.9547 109.306 63.7062 109.306 53.3512C109.306 49.5543 108.615 45.7575 106.544 41.2703C106.199 40.58 106.199 40.2348 106.199 39.5445C106.199 38.509 106.889 37.4734 107.925 37.4734C108.615 37.4734 109.651 38.1638 110.341 39.8896C112.412 44.3768 113.102 48.864 113.102 52.6608C113.102 65.0868 103.783 73.716 93.4279 76.4774C92.0472 76.8225 90.6666 77.1677 89.2859 77.1677C81.347 77.1677 76.8599 70.2643 76.8599 60.5997C76.8599 47.4833 85.489 29.1894 105.509 17.4538C115.864 11.5859 131.051 4.3374 150.726 4.3374C176.613 4.3374 191.11 16.0731 191.11 36.0928C191.11 42.651 189.384 49.8995 186.278 58.1835Z" fill="#ADBED7"/>
</svg>
