<svg width="779" height="186" viewBox="0 0 779 186" fill="none" xmlns="http://www.w3.org/2000/svg">
<path d="M776.495 143.614C770.216 151.288 741.962 184.077 726.265 184.077C714.057 184.077 710.22 178.147 710.22 171.17C710.22 165.938 712.313 160.008 714.406 156.171C714.406 156.171 709.173 161.403 704.29 165.589C698.36 170.473 685.105 184.077 666.966 184.077C657.199 184.077 653.362 176.751 653.362 168.38C653.362 164.194 654.06 159.659 655.804 155.474C659.641 145.358 673.594 127.219 677.082 122.336C677.082 122.336 663.478 136.637 656.851 142.916C656.153 143.614 655.455 143.963 654.758 143.963C653.711 143.963 653.014 143.265 653.014 142.218C653.014 141.521 653.362 140.474 654.409 139.777C668.362 126.173 689.291 105.244 689.291 104.895L689.988 103.151H706.383L679.175 141.521C677.431 143.963 664.873 162.799 664.873 173.263C664.873 176.751 666.269 179.193 670.803 179.193C680.919 179.193 695.569 167.682 702.895 161.403C709.522 155.822 726.614 134.196 726.614 134.196L749.985 103.151H766.031L738.125 141.521C736.381 143.963 720.684 164.194 720.684 173.961C720.684 176.751 722.08 178.496 725.917 178.496C741.613 178.496 765.682 148.497 774.053 140.126C775.1 138.73 776.146 138.381 776.844 138.381C777.89 138.381 778.239 138.73 778.239 139.777C778.239 140.823 777.89 141.87 776.495 143.614Z" fill="#ADBED7"/>
<path d="M656.063 143.614C645.947 154.427 635.831 165.589 626.064 173.263C615.949 181.286 610.367 183.728 603.391 183.728C598.856 183.728 590.834 179.891 590.834 168.38C590.834 162.45 593.275 154.079 599.554 143.614C607.228 131.057 626.064 113.964 626.064 107.686C626.064 106.29 625.018 105.244 622.227 105.244C612.112 105.244 592.578 121.29 576.183 142.916C575.486 143.963 548.278 181.984 548.278 181.984H530.837C530.837 181.984 574.439 121.29 574.788 120.592C577.23 117.453 580.02 112.22 580.02 108.732C580.02 106.639 578.974 105.244 575.835 105.244C565.021 104.895 542.697 126.522 532.232 141.172L503.28 181.984H485.84L529.442 120.592C531.883 117.453 537.465 111.523 537.465 108.383C537.465 106.988 536.418 106.29 534.325 106.29C522.465 106.29 491.072 138.382 486.188 142.219C485.491 142.916 484.793 142.916 484.095 142.916C483.398 142.916 482.7 142.219 482.7 141.521C482.7 140.823 483.049 139.777 483.747 139.079C487.932 134.196 521.419 101.756 536.418 101.756C543.743 101.756 546.185 105.244 546.185 109.779C546.185 115.011 543.046 121.638 540.604 126.173C540.604 126.173 563.277 101.756 576.532 101.756C586.299 101.756 589.438 107.337 589.438 113.616C589.438 118.15 587.694 122.685 585.95 126.173C585.95 126.173 608.275 102.453 623.274 102.105C629.552 102.105 632.343 106.639 632.343 112.569C632.343 120.592 627.808 131.057 621.53 138.033C608.972 151.986 599.554 165.241 599.554 172.915C599.554 176.752 600.949 178.845 605.484 178.845C616.995 178.845 645.598 147.8 653.97 139.079C655.016 138.033 656.411 137.335 657.109 137.335C657.807 137.335 658.504 138.033 658.504 139.079C658.504 140.126 657.807 141.87 656.063 143.614Z" fill="#ADBED7"/>
<path d="M486.519 143.265C478.496 151.986 454.776 184.077 428.266 184.077C427.917 184.077 427.22 184.077 426.871 184.077C413.964 183.379 407.337 173.263 407.337 160.357C407.337 150.59 410.825 139.079 417.801 128.615C427.917 113.267 447.102 102.802 458.962 102.802C471.868 102.802 476.752 108.732 476.752 115.011C476.752 116.057 476.752 117.104 476.403 118.15C475.008 123.034 472.566 125.824 468.38 125.824C468.031 125.824 468.031 125.824 467.682 125.824C464.194 125.475 461.752 123.034 461.752 119.894C461.752 118.848 462.101 117.801 462.45 116.755C463.845 113.964 466.287 113.267 468.38 113.267C470.124 113.267 471.868 113.616 472.217 113.616C472.566 113.616 472.566 113.616 472.566 113.616C472.566 113.616 472.566 113.616 472.566 113.267C472.566 110.476 470.124 106.988 465.241 106.988C458.264 106.988 446.753 113.267 431.057 135.94C421.29 149.893 417.104 161.055 417.104 168.729C417.104 176.403 421.29 180.589 428.266 180.589C450.939 180.589 477.1 147.102 483.728 139.777C485.123 138.382 486.17 137.684 487.216 137.684C487.914 137.684 488.611 138.382 488.611 139.428C488.611 140.475 487.914 141.87 486.519 143.265Z" fill="#ADBED7"/>
<path d="M390.04 145.358C393.18 138.73 397.366 127.917 397.366 119.197C397.366 111.871 394.575 105.941 386.203 105.593H386.552H386.203C374.344 105.593 361.786 121.638 353.414 134.893C347.136 144.66 339.113 160.706 339.113 170.822C339.113 176.751 341.904 180.588 348.531 180.588C365.274 180.588 383.064 159.311 390.04 145.358ZM414.458 142.567C410.272 147.102 402.947 148.148 398.063 148.148C394.924 148.148 392.482 147.8 392.482 147.8C387.599 157.567 369.809 183.728 345.741 183.728C333.881 183.728 328.648 172.914 328.648 160.357C328.648 151.288 331.439 141.521 335.974 134.893C345.74 120.592 358.996 102.104 386.552 102.104C397.366 102.104 400.505 109.778 400.505 118.848C400.505 128.963 396.319 140.474 394.226 143.963C394.226 143.963 395.621 144.311 397.714 144.311C401.551 144.311 407.83 143.614 412.016 139.777C412.714 139.079 413.411 138.73 414.109 138.73C415.155 138.73 415.853 139.428 415.853 140.126C415.853 140.823 415.504 141.521 414.458 142.567Z" fill="#ADBED7"/>
<path d="M374.354 4.08699C360.402 4.08699 341.217 32.3412 330.752 46.9916C322.729 58.5026 296.917 90.9426 296.917 91.2914C310.87 81.5245 342.612 58.1537 360.053 42.4569C369.82 33.7365 380.982 16.9933 380.982 8.97045C380.982 5.13345 377.843 4.08699 374.354 4.08699ZM384.121 7.924C384.121 16.6444 377.145 32.69 362.843 44.8987C346.798 58.8514 309.474 87.4544 293.778 97.5701L263.779 141.521C263.779 141.521 250.873 161.055 250.873 172.566C250.873 177.449 253.315 180.938 259.593 180.938C277.732 180.938 294.475 155.474 302.847 141.521C303.893 139.777 301.452 102.454 314.707 102.454C320.288 102.454 322.381 106.639 322.381 111.523C322.381 120.243 315.753 133.15 309.474 142.916C309.474 143.265 313.311 143.963 317.846 143.963C323.078 143.963 329.008 143.265 332.496 140.126C333.194 139.428 334.24 139.079 334.938 139.079C335.636 139.079 336.333 139.428 336.333 140.126C336.333 140.824 335.636 142.219 334.24 143.614C330.752 147.102 324.822 148.149 319.241 148.149C313.311 148.149 308.079 147.102 306.684 147.102C306.335 147.102 306.335 147.102 306.335 147.102C298.661 157.218 280.871 185.821 256.105 185.821C246.338 185.821 240.757 178.147 240.757 166.636C240.757 154.776 246.687 138.731 259.942 123.383C259.942 123.383 270.756 110.476 271.104 110.476C265.174 113.616 245.99 128.964 232.734 142.568C232.386 142.916 231.688 143.265 230.99 143.265C229.944 143.265 228.897 142.568 228.897 141.521C228.897 140.824 229.246 140.126 230.293 139.079C244.943 124.778 263.082 109.779 275.988 103.151C275.988 103.151 313.66 57.1073 322.381 45.5963C329.706 35.8294 355.518 0.25 374.703 0.25C380.284 0.25 384.121 1.99409 384.121 7.924Z" fill="#ADBED7"/>
<path d="M209.159 145.358C212.299 138.73 216.485 127.917 216.485 119.197C216.485 111.871 213.694 105.941 205.323 105.593H205.671H205.323C193.463 105.593 180.905 121.638 172.534 134.893C166.255 144.66 158.232 160.706 158.232 170.822C158.232 176.751 161.023 180.588 167.65 180.588C184.393 180.588 202.183 159.311 209.159 145.358ZM233.577 142.567C229.391 147.102 222.066 148.148 217.182 148.148C214.043 148.148 211.601 147.8 211.601 147.8C206.718 157.567 188.928 183.728 164.86 183.728C153 183.728 147.768 172.914 147.768 160.357C147.768 151.288 150.558 141.521 155.093 134.893C164.86 120.592 178.115 102.104 205.671 102.104C216.485 102.104 219.624 109.778 219.624 118.848C219.624 128.963 215.438 140.474 213.345 143.963C213.345 143.963 214.741 144.311 216.833 144.311C220.67 144.311 226.949 143.614 231.135 139.777C231.833 139.079 232.53 138.73 233.228 138.73C234.274 138.73 234.972 139.428 234.972 140.126C234.972 140.823 234.623 141.521 233.577 142.567Z" fill="#ADBED7"/>
<path fill-rule="evenodd" clip-rule="evenodd" d="M198.158 21.9797C200.77 21.9797 203.12 22.766 204.948 24.0764C207.821 26.1732 209.127 29.8424 209.127 34.0359C209.127 42.4228 203.381 53.1685 192.151 59.7207C170.474 72.039 140.962 81.9984 133.388 83.8331C133.388 83.8331 149.319 58.6724 158.46 47.9267C172.563 31.1529 187.972 21.9797 198.158 21.9797ZM212 33.7738C212 29.3182 210.433 25.3869 207.299 22.5039C205.21 20.4072 202.076 19.6209 198.68 19.6209C185.883 19.6209 166.295 32.2013 152.192 46.3541C138.873 59.7207 117.457 86.1919 117.457 86.1919C115.081 86.7675 111.29 87.6011 106.989 88.547C97.5821 90.616 85.7323 93.2221 80.8932 94.8409C80.8932 94.8409 90.8176 78.0671 101.003 63.1279C111.396 47.7793 125.91 34.7946 134.931 26.7249C137.925 24.0464 140.314 21.9094 141.746 20.4072C142.79 19.0967 143.313 18.3104 143.313 17.7863C143.313 17.2621 143.051 17 142.79 17C142.007 17 140.701 17.7863 139.395 19.0967C125.814 32.7254 110.666 40.326 99.9585 41.6365C98.6527 41.8986 97.3468 41.8986 96.3022 41.8986C86.9315 41.8986 86.8743 36.6024 86.8157 31.174C86.7812 27.9787 86.7462 24.7375 84.8107 22.5039C81.9379 19.0967 73.3193 17 63.1337 17C53.7316 17 43.0237 19.0967 34.9275 23.8144C26.0477 29.0562 21.6078 37.4431 21.6078 45.3058C21.6078 54.4789 27.6147 63.1279 40.9343 65.4867C43.546 66.0109 46.9412 66.273 50.8588 66.273C59.9997 66.273 70.7076 63.9142 77.2368 54.2169C78.0203 53.1685 78.2815 52.6443 78.2815 52.1201C78.2815 51.858 78.0203 51.858 77.7592 51.858C77.2368 51.858 75.931 52.9064 74.8863 54.4789C70.4464 61.5554 59.9997 63.9142 50.5976 63.9142C47.4636 63.9142 44.3295 63.6521 41.7179 63.1279C30.2264 61.0312 25.003 52.9064 25.003 44.5195C25.003 36.6568 29.7041 28.532 38.0615 24.8627C44.0684 22.2418 53.4705 20.1451 62.089 20.1451C70.1853 20.1451 77.2368 21.9797 79.8485 26.4353C80.3708 27.4836 80.3708 28.532 80.3708 29.5803V33.5117C80.3708 36.1326 80.632 38.7535 83.2437 41.8986C85.5942 44.7816 89.2506 45.83 93.4293 45.83C104.137 45.83 117.457 39.0156 117.457 39.0156C117.457 39.0156 87.4224 68.6318 79.8485 77.805C77.3223 80.9739 74.3294 85.0369 71.588 88.7585C67.5274 94.2709 64.0185 99.0343 63.3949 99.0343C38.845 104.538 24.7419 108.732 17.6903 123.147C16.6456 124.981 16.3845 126.292 16.3845 127.34C16.3845 127.864 16.6456 128.126 16.9068 128.126C17.6903 128.126 18.4738 127.34 19.2573 126.03C27.3536 109.518 48.7694 105.062 61.3055 102.704C61.3055 102.704 50.5976 119.215 40.9343 134.154C26.7641 156.115 12.4707 170.41 0 177.211L1.1304 181.069C19.6589 173.349 37.4234 155.691 53.4704 134.154C63.9172 120.264 79.5873 98.248 79.5873 98.248C84.9991 96.2115 102.286 92.4166 111.447 90.4056C112.897 90.0874 114.143 89.8139 115.106 89.5991C115.106 89.5991 99.4362 108.207 84.8107 137.562C80.8932 145.162 78.5427 153.811 78.5427 161.412C78.5427 173.992 85.3331 184.476 102.831 185H103.615C120.997 185 135.91 167.837 144.009 158.516C145.767 156.493 147.203 154.84 148.275 153.811C150.625 151.715 151.409 149.88 151.409 148.832C151.409 148.307 151.148 148.045 150.625 148.045C149.842 148.045 148.014 149.094 145.924 151.19C145.184 151.933 144.148 153.119 142.854 154.599C135.474 163.044 119.72 181.069 102.831 181.069C89.7729 181.069 85.5942 174.516 85.5942 166.916C85.5942 161.936 87.4224 156.432 89.7729 152.239C103.876 127.34 131.56 86.9782 131.56 86.9782C149.058 82.5226 173.608 73.0874 192.674 63.1279C203.12 57.624 212 44.5195 212 33.7738Z" fill="#ADBED7"/>
</svg>
