<svg width="762" height="184" viewBox="0 0 762 184" fill="none" xmlns="http://www.w3.org/2000/svg">
<path d="M712.289 94.9002C712.289 94.4492 712.289 94.4492 712.289 93.9982C712.289 90.3902 710.485 82.7231 704.622 80.017C702.818 79.115 701.014 79.115 698.759 79.115C686.131 79.115 664.934 91.7432 643.736 117.901C631.108 133.236 620.284 153.982 620.284 165.708C620.284 172.022 622.99 176.081 630.206 176.081C642.834 176.081 664.032 158.943 682.974 138.648C695.602 125.118 710.485 101.665 712.289 94.9002ZM758.743 128.275C751.526 135.491 714.995 182.846 687.935 182.846C679.366 182.846 672.601 175.63 672.601 165.257C672.601 161.198 673.503 156.688 676.66 151.727C676.66 151.727 650.501 181.493 628.853 181.493C615.774 181.493 609.009 169.316 609.009 153.982C609.009 140.903 613.519 125.118 623.441 112.038C645.991 81.3701 677.562 74.605 693.347 74.605C694.7 74.605 696.053 74.605 697.406 74.605C713.191 75.958 715.897 89.0371 715.897 89.0371L724.917 76.86H745.212L693.347 151.727C690.641 155.335 685.68 162.1 685.68 167.512C685.68 170.669 687.935 173.375 694.7 173.375C701.465 173.375 709.132 167.512 714.544 163.453C730.329 150.825 749.722 129.628 754.683 124.215C756.488 121.96 758.292 121.058 759.645 121.058C760.998 121.058 761.449 121.96 761.449 123.313C761.449 124.215 760.547 126.02 758.743 128.275Z" fill="#ADBED7"/>
<path d="M619.181 128.274C613.769 134.137 578.14 180.591 552.432 180.591C539.804 180.591 528.98 168.865 528.98 154.884C528.98 145.864 535.294 135.941 545.216 126.47C558.746 113.391 582.199 95.802 582.199 84.5269C582.199 81.3699 581.297 79.5659 576.336 79.5659C558.295 79.5659 526.274 112.489 517.254 125.568C516.352 126.921 515.45 127.372 514.548 127.372C513.646 127.372 511.842 126.47 511.842 125.117C511.842 124.215 512.744 123.313 513.646 121.96C520.862 112.489 551.53 74.1538 577.238 74.1538C587.611 74.1538 591.219 82.2719 591.219 94.9C591.219 105.724 574.983 121.96 561.453 134.137C551.53 143.158 545.216 154.884 545.216 162.1C545.216 168.414 549.726 173.375 556.491 173.375C573.179 173.375 611.514 129.627 616.926 122.411C617.828 121.509 618.73 121.058 619.632 121.058C620.985 121.058 621.887 121.96 621.887 123.313C621.887 124.215 620.985 126.019 619.181 128.274Z" fill="#ADBED7"/>
<path d="M514.661 129.176C506.543 139.098 470.011 181.492 449.716 181.492C433.931 181.492 428.97 173.825 428.97 164.805C428.97 158.04 431.676 150.373 434.382 145.412C434.382 145.412 427.617 152.177 421.303 157.589C413.636 163.903 396.498 181.492 373.045 181.492C360.417 181.492 355.456 172.021 355.456 161.197C355.456 155.785 356.358 149.922 358.613 144.51C363.574 131.431 381.615 107.979 386.125 101.665C386.125 101.665 368.535 120.156 359.966 128.274C359.064 129.176 358.162 129.627 357.26 129.627C355.907 129.627 355.005 128.725 355.005 127.372C355.005 126.47 355.456 125.117 356.809 124.215C374.849 106.626 401.91 79.5654 401.91 79.1144L402.812 76.8594H424.009L388.831 126.47C386.576 129.627 370.339 153.981 370.339 167.511C370.339 172.021 372.143 175.178 378.006 175.178C391.086 175.178 410.028 160.295 419.499 152.177C428.068 144.961 450.167 116.999 450.167 116.999L480.385 76.8594H501.131L465.05 126.47C462.795 129.627 442.5 155.785 442.5 168.413C442.5 172.021 444.304 174.276 449.265 174.276C469.56 174.276 500.68 135.49 511.504 124.666C512.857 122.862 514.21 122.411 515.112 122.411C516.465 122.411 516.916 122.862 516.916 124.215C516.916 125.568 516.465 126.921 514.661 129.176Z" fill="#ADBED7"/>
<path d="M358.863 129.177C350.745 139.099 314.214 181.493 293.919 181.493C277.232 181.493 272.722 172.924 272.722 163.453C272.722 157.139 274.977 148.119 279.036 142.707L288.507 129.177H254.681L221.307 178.787H197.855L254.681 99.4104C256.936 95.8024 263.25 88.5863 263.25 84.5272C263.25 82.7232 261.897 81.8212 259.191 81.8212C244.759 81.8212 202.565 123.788 195.8 130.102C194.898 131.004 193.996 131.004 193.545 131.004C192.643 131.004 188.92 133.65 188.92 132.748C188.92 131.846 194.247 126.02 195.149 125.118C198.757 120.157 242.053 75.0562 263.701 75.0562C272.722 75.0562 275.428 80.4682 275.428 87.2333C275.428 93.5473 273.173 100.312 270.467 105.273C266.407 112.49 264.603 114.745 258.74 123.765H292.115L324.587 76.8602H345.784L309.704 126.471C304.292 133.687 286.703 155.786 286.703 168.414C286.703 172.022 288.507 174.277 293.468 174.277C313.763 174.277 344.882 135.491 355.706 124.667C357.059 122.863 358.412 122.412 359.314 122.412C360.667 122.412 361.118 122.863 361.118 124.216C361.118 125.569 360.667 126.922 358.863 129.177Z" fill="#ADBED7"/>
<path fill-rule="evenodd" clip-rule="evenodd" d="M151.472 74.5728C154.839 75.6921 158.486 78.4903 159.608 84.3666C158.486 84.6464 157.083 84.6464 155.961 84.6464C152.875 84.6464 150.069 84.0868 147.264 82.4079C144.739 81.0087 143.056 78.2105 143.056 76.2518C143.056 74.5728 143.897 73.4535 146.422 73.4535C147.545 73.4535 149.228 73.7334 151.472 74.5728ZM280.521 26.7232C283.326 26.7232 286.412 25.0442 288.096 21.6864C288.657 20.5671 288.937 19.4478 288.937 18.3285C288.937 13.0119 283.326 7.69523 277.435 6.85577C275.191 6.57594 272.666 6.29612 270.422 6.29612C241.08 6.29612 220.107 30.8348 205.093 48.4021C204.317 49.3107 203.556 50.2007 202.811 51.0677C191.87 63.6597 177.001 79.05 163.255 83.5271C160.449 77.9307 155.68 74.0132 152.033 72.0544C150.069 71.2149 148.386 70.6553 146.703 70.6553C142.495 70.6553 139.689 73.7334 139.689 77.0912C139.689 79.6096 141.092 82.128 144.178 84.0868C147.545 86.0455 151.472 86.885 155.4 86.885C156.802 86.885 158.486 86.885 159.888 86.6052V88.2841C159.888 95.8393 155.961 107.312 143.056 122.422C130.432 137.253 120.613 156.281 120.613 169.153C120.613 177.268 124.54 182.864 134.64 182.864C151.472 182.864 191.336 135.292 194.163 131.883C195.29 130.523 196.138 129.573 196.761 128.874C197.867 127.634 198.267 127.186 198.267 126.649C198.267 126.089 196.875 125.675 196.314 125.675C195.315 125.675 194.613 126.38 192.693 128.309C192.455 128.548 192.197 128.806 191.919 129.085C191.045 129.582 187.797 133.096 183.214 138.054C169.854 152.507 145.156 179.226 134.92 179.226H134.359C130.993 178.947 129.309 176.988 129.309 173.91C129.309 165.235 141.092 147.607 152.594 133.336C163.255 120.184 167.182 108.711 167.182 99.1972C167.182 94.1604 166.06 89.6832 164.377 85.7657C184.295 80.7289 207.3 61.4212 215.435 50.5081C228.901 32.0398 250.503 8.5347 270.422 8.5347C273.788 8.5347 277.155 9.37418 280.521 10.7733C280.521 10.7733 273.507 12.1724 273.507 18.8881C273.507 19.5525 273.683 20.3921 273.896 21.407C273.952 21.6745 274.01 21.9542 274.069 22.246C274.91 25.0442 277.716 26.7232 280.521 26.7232ZM191.397 11.5979C191.557 11.5083 191.715 11.4201 191.87 11.3329C193.834 10.2136 194.675 8.25488 194.675 6.85577C194.675 5.17682 194.114 4.05753 192.712 4.05753C191.589 4.05753 190.467 4.89701 188.784 6.57594C176.44 20.0074 162.694 28.9618 150.911 28.9618C147.825 28.9618 145.02 28.4021 142.495 27.2828C139.409 26.1635 139.128 23.6451 139.128 20.5671V18.0487C139.128 13.5715 138.567 8.81452 130.712 5.73648C124.26 3.21808 113.038 0.979492 101.255 0.979492C90.8752 0.979492 80.2147 2.65842 72.3595 7.13559C60.8573 13.5715 55.8076 23.3653 55.8076 32.5995C55.8076 42.9529 61.9795 53.0265 72.3595 56.944C76.5676 58.6229 80.7758 59.1826 84.7033 59.1826C99.572 59.1826 112.757 49.6686 117.246 40.7143C119.21 36.7968 120.051 33.9986 120.051 32.8793C120.051 32.3196 120.052 32.0398 119.771 32.0398C118.929 32.0398 117.246 34.2784 114.16 39.8748C109.11 49.109 97.8888 55.5449 85.545 55.5449C81.6174 55.5449 77.6898 54.9853 73.7622 53.5861C65.6265 50.7879 60.0157 42.1134 60.0157 32.8793C60.0157 24.4846 64.5044 15.8101 75.1649 10.2136C82.459 6.29612 92.839 5.17682 102.377 5.17682C112.196 5.17682 121.174 6.57594 125.382 8.25488C130.993 10.4935 131.554 14.1311 131.554 17.489V20.2872C131.554 22.5258 131.834 24.4846 133.517 26.1635C137.445 29.5214 142.495 31.2003 148.667 31.2003C154.839 31.2003 161.572 29.5214 168.305 25.6039C168.305 25.6362 167.837 26.0601 166.964 26.8519C160.275 32.9188 129.771 60.5844 103.219 99.1972C71.8528 144.388 38.1809 177.569 0 180.181V183.021C31.1722 180.219 80.391 161.922 118.929 100.317C165.52 26.0725 182.31 16.6806 191.397 11.5979Z" fill="#ADBED7"/>
</svg>
