<svg width="670" height="287" viewBox="0 0 670 287" fill="none" xmlns="http://www.w3.org/2000/svg">
<path d="M210.051 7.02081C213.78 2.43141 218.074 0.136719 218.935 0.136719C218.935 0.136719 219.222 0.42357 219.222 0.710403C219.222 7.30764 201.367 68.117 187.599 97.0875C176.125 120.608 159.9 154.455 159.9 170.518C159.9 176.254 159.481 179.696 166.365 179.696H166.939C181.281 179.41 203.654 153.021 209.391 146.423C210.251 145.276 211.112 144.989 211.972 144.989C212.833 144.989 213.406 145.563 213.406 146.423C213.406 146.997 213.12 147.571 212.546 148.144C206.235 154.742 186.157 183.712 163.784 183.712H163.497C154.031 183.425 150.302 177.115 150.302 167.936C150.302 148.718 161.218 116.879 173.265 97.0875C198.22 55.783 210.043 17.3469 210.043 13.9049C210.043 13.618 210.043 13.618 209.756 13.618C207.461 13.9049 189.901 54.3488 159.784 94.5059C127.945 136.384 100.393 184.859 90.9272 184.573C88.9193 184.573 88.0588 182.565 88.0588 179.41C88.0588 165.928 100.122 127.779 121.634 95.6533C139.992 68.117 160.994 13.618 160.994 13.618C153.823 21.3626 131.961 64.9618 104.424 98.2348C67.1354 143.842 42.4518 184.859 0 184.573L4.87622 181.417C42.4518 181.704 71.7327 130.647 101.277 95.0796C137.705 51.4804 156.412 12.1839 162.723 5.58663C166.165 1.85775 170.173 0.423571 171.033 0.423571C171.32 0.423571 171.32 0.423569 171.32 0.997234C171.32 7.59447 152.031 65.5354 134.534 97.0875C119.045 124.624 94.0745 167.649 94.0745 177.115C94.0745 178.262 92.6482 179.123 93.5087 179.123C98.6718 179.41 130.1 127.205 156.776 91.3507C187.18 50.3331 205.175 13.0444 210.051 7.02081Z" fill="#ADBED7"/>
<path d="M628.087 109.887C628.087 109.506 628.087 109.506 628.087 109.124C628.087 106.072 626.561 99.587 621.601 97.2981C620.075 96.5351 618.549 96.5351 616.642 96.5351C605.96 96.5351 588.03 107.217 570.1 129.343C559.419 142.314 550.263 159.862 550.263 169.781C550.263 175.122 552.552 178.555 558.656 178.555C569.337 178.555 587.267 164.058 603.29 146.891C613.971 135.447 626.561 115.609 628.087 109.887ZM667.38 138.117C661.276 144.221 630.375 184.277 607.486 184.277C600.238 184.277 594.516 178.173 594.516 169.399C594.516 165.966 595.279 162.151 597.949 157.955C597.949 157.955 575.823 183.133 557.511 183.133C546.448 183.133 540.726 172.833 540.726 159.862C540.726 148.799 544.541 135.447 552.933 124.384C572.008 98.4425 598.712 92.7202 612.064 92.7202C613.209 92.7202 614.353 92.7202 615.497 92.7202C628.85 93.8647 631.138 104.928 631.138 104.928L638.768 94.6276H655.935L612.064 157.955C609.775 161.007 605.579 166.729 605.579 171.307C605.579 173.977 607.486 176.266 613.209 176.266C618.931 176.266 625.416 171.307 629.994 167.873C643.346 157.192 659.75 139.262 663.946 134.684C665.472 132.776 666.998 132.013 668.143 132.013C669.287 132.013 669.669 132.776 669.669 133.921C669.669 134.684 668.906 136.21 667.38 138.117Z" fill="#ADBED7"/>
<path d="M549.214 138.881C542.347 147.273 511.446 183.133 494.279 183.133C478.257 183.133 472.916 177.411 472.916 169.4C472.916 155.284 490.465 134.684 493.516 130.106C493.516 130.106 479.783 143.458 459.946 143.458C444.686 143.458 440.108 139.262 440.108 133.54C440.108 127.436 445.068 119.043 447.738 112.176C448.119 110.65 448.501 109.887 448.501 109.506C448.501 109.124 448.501 108.743 448.119 108.743C446.212 108.743 440.108 116.373 439.727 116.373C439.727 116.373 440.108 116.373 440.49 115.61C440.49 115.61 425.612 131.251 418.363 138.118C417.6 138.881 416.837 139.262 416.074 139.262C414.93 139.262 414.167 138.499 414.167 137.355C414.167 136.592 414.548 135.447 415.693 134.684C430.952 119.806 453.842 96.9169 453.842 96.5354L454.605 94.6279H472.535L458.801 114.847C456.131 120.188 453.842 125.528 453.842 129.725C453.842 134.684 456.512 138.118 464.523 138.118C474.061 138.118 482.453 134.303 492.754 125.91C500.002 119.806 503.435 116.373 503.435 116.373L520.221 94.6279H536.625L508.776 136.592C508.776 136.973 488.176 161.388 488.176 172.07C488.176 175.122 489.702 177.029 493.898 177.029C511.065 177.029 537.388 144.221 546.543 135.066C547.688 133.54 548.832 133.158 549.595 133.158C550.74 133.158 551.121 133.54 551.121 134.684C551.121 135.829 550.74 136.973 549.214 138.881Z" fill="#ADBED7"/>
<path d="M417.687 138.88C413.109 143.84 382.972 183.133 361.227 183.133C350.545 183.133 341.39 173.214 341.39 161.388C341.39 153.758 345.204 145.366 355.123 138.88C367.331 130.869 381.064 111.413 381.064 101.876C381.064 98.824 379.538 96.5351 375.342 96.5351C362.753 96.5351 336.812 120.187 321.552 142.314L221.602 286.516H203.672C203.672 286.516 338.719 90.0498 348.256 80.5126C348.256 80.5126 313.922 113.702 288.744 136.973C287.218 138.499 285.692 138.88 284.929 138.88C283.785 138.88 283.022 138.117 283.022 137.354C283.022 136.21 283.785 135.065 284.929 133.921C299.044 120.187 338.719 80.1311 360.464 61.0567C361.227 60.6752 380.683 34.734 382.972 31.6821H391.364C378.012 53.4269 336.049 114.465 336.049 114.465C350.545 103.402 360.464 93.4832 376.868 93.1017C384.116 93.1017 388.313 101.876 388.313 112.558C388.313 125.147 382.59 140.788 369.238 148.417C359.319 154.14 355.123 161.388 355.123 167.492C355.123 172.833 358.938 177.029 364.66 177.029C378.775 177.029 411.202 140.025 415.78 133.921C416.543 133.158 417.306 132.776 418.069 132.776C419.213 132.776 419.976 133.539 419.976 134.684C419.976 135.447 419.213 136.973 417.687 138.88Z" fill="#ADBED7"/>
<path d="M267.288 98.0611C258.133 98.0611 250.503 103.402 244.399 109.506C236.769 117.517 232.192 126.673 232.192 128.199C232.192 128.58 232.955 128.58 233.718 128.58C238.295 128.58 249.359 125.91 260.04 122.095C268.051 119.043 276.444 111.413 276.444 105.309C276.444 100.35 271.485 98.0611 267.288 98.0611ZM287.507 137.736C281.403 145.747 251.647 183.896 228.377 183.896C214.262 183.896 205.869 172.07 205.869 155.666C205.869 145.747 208.921 133.921 216.169 122.476C230.284 99.9686 255.081 93.8647 263.855 93.8647C273.392 93.8647 281.022 96.5352 281.022 105.691C281.022 113.702 271.103 122.476 261.185 126.673C252.029 130.488 237.914 133.158 229.14 133.539C223.799 143.84 217.695 156.81 217.695 166.347C217.695 173.214 220.747 177.792 229.521 177.792C250.121 177.792 277.97 140.788 284.837 135.065C285.6 134.302 286.363 133.921 287.126 133.921C287.889 133.921 288.652 134.302 288.652 135.447C288.652 135.828 288.27 136.973 287.507 137.736Z" fill="#ADBED7"/>
</svg>
